<svg xmlns="http://www.w3.org/2000/svg" width="160" height="160" viewBox="0 0 160 160"><defs><style>.a{fill:#f4dfc5;}.b{fill:#f05a28;}.c{fill:#fdfcf9;}.d{fill:#fff;}.e{fill:#2d2723;}</style></defs><g transform="translate(-447.941 -161.941)"><path class="a" d="M447.941,241.941a80.082,80.082,0,0,0,80,80c2.731,0,5.438-.14,8.1-.4a.489.489,0,0,1,.128-.023q2.065-.21,4.1-.525c.047-.011.082-.011.128-.023a79.335,79.335,0,0,0,30.2-11.377c.082-.059.175-.105.257-.164.047-.035.093-.058.14-.093a79.988,79.988,0,1,0-123.045-67.4Z" transform="translate(0)"/><path class="b" d="M607.089,243.986a77.088,77.088,0,0,1-35.619,64.962c-.045.034-.09.056-.135.09-.079.056-.169.1-.247.157-.821.517-1.642,1.023-2.486,1.5a.756.756,0,0,1-.124.079c-.169.1-.349.2-.517.292a76.36,76.36,0,0,1-25.98,9.1c-.045.012-.079.012-.124.022-1.158.18-2.317.337-3.5.45-.146.022-.3.045-.45.057a.454.454,0,0,0-.124.023c-1.136.112-2.272.2-3.43.259-1.451.078-2.9.123-4.375.123a77.108,77.108,0,1,1,77.108-77.108Z" transform="translate(-2.044 -2.046)"/><path class="c" d="M595.386,276.589a294.241,294.241,0,0,0,2.483,38.745c-.176.1-.363.2-.539.292a81.786,81.786,0,0,1-27.051,9.083c-.047.012-.082.012-.129.022-1.206.18-2.412.337-3.642.449-.152.022-.316.045-.468.057a.492.492,0,0,0-.129.022c-1.183.112-2.365.2-3.572.258v-.1l-14.708-7.769L519.6,289.32a11.53,11.53,0,0,1-1.358-1.639.2.2,0,0,0-.047-.056,4.711,4.711,0,0,1-.269-.393c-.105-.168-.211-.348-.3-.516-.012-.011-.023-.011-.012-.034a3.1,3.1,0,0,1-.258-.471c-.07-.135-.141-.269-.2-.393-.082-.179-.152-.348-.234-.516a8.267,8.267,0,0,1-.3-.853c-.082-.247-.152-.471-.222-.719-.023-.1-.035-.191-.059-.281q-.123-.522-.211-1.078c-.023-.213-.047-.438-.059-.662a4.836,4.836,0,0,1-.059-.82l-.082-5.266a6.8,6.8,0,0,0-1.042-3.424l-.187-.3-1.581-2.481a5.369,5.369,0,0,1,1.253-7.1l.269-.225a6.222,6.222,0,0,1,1.323-.775,2.944,2.944,0,0,1,.281-.112.533.533,0,0,1,.187-.067,3.514,3.514,0,0,1,.457-.135c.164-.045.316-.067.48-.1a2.878,2.878,0,0,1,.328-.045h.105a5.436,5.436,0,0,1,2.248.213,3.062,3.062,0,0,1,.422.135c.105.034.2.079.3.124s.2.09.293.135c.012,0,.023.022.047.022a4.222,4.222,0,0,1,.527.3l1.651,1.1,6.23,4.087a2.374,2.374,0,0,1,.269.225,5.039,5.039,0,0,1,.749.966c.047.067.094.135.141.213.129.213.246.427.375.662.047.1.105.213.164.314.41.808.808,1.729,1.195,2.638.176.438.363.876.539,1.3.187.449.363.876.539,1.28l.023.067c.082.18.164.348.246.516s.164.326.234.472c.059.124.129.248.187.348a4.089,4.089,0,0,0,.246.393l5.4,4.479a4.507,4.507,0,0,0,1.031.651c.129.056.258.1.386.157.094.034.187.056.269.079a4.256,4.256,0,0,0,.656.146l.222.022.023.011h.023l.012.011c.129.011.246.011.363.011.176,0,.351-.011.527-.022a5.489,5.489,0,0,0,.726-.135c.152-.045.3-.09.457-.146a4.565,4.565,0,0,0,.632-.292l16.441-9.027a3.171,3.171,0,0,0,1.663-2.986l-.187-2.47-.094-1.314-.8-1.246-2.822-4.48-.082-.034-.012-.011-.492-.314-1.452-.909a.011.011,0,0,1-.012-.011l-2-1.235-1.253-.786-.972-.606-.785-.505-.749-.449a3.3,3.3,0,0,0-2.494-.438h-.012a2.4,2.4,0,0,0-.386.09l-.223.079-6.007,2.01h-.012l-2.026.674-9.275,3.851-.141.056a11.689,11.689,0,0,1-1.569.528c-.258.067-.5.123-.761.18l-.644.1c-.269.045-.562.067-.82.09h-.082c-.293.022-.586.034-.89.034h-.059c-.258,0-.515-.011-.773-.022-.445-.034-.89-.1-1.347-.168-.105-.022-.2-.022-.293-.034l-.293-.067a13.476,13.476,0,0,1-2.166-.7l-2.155-.921A3.459,3.459,0,0,1,517.138,256a4.5,4.5,0,0,1,.269-.584l.843-.988a3.626,3.626,0,0,1,.562-.359l25.505-15.853a11.667,11.667,0,0,1,1.276-.7,3.955,3.955,0,0,1,.5-.213,9.29,9.29,0,0,1,1.183-.427,12.529,12.529,0,0,1,4.181-.505c.129,0,.258.011.386.022.164.011.328.022.492.045a4.449,4.449,0,0,1,.539.079c.234.034.457.079.691.123.164.034.328.079.492.124s.328.09.48.135c.187.056.375.112.55.18.258.09.5.191.749.3s.492.213.726.337l2.108,1.1L564.846,242l1.323.674-.035-.067-.023-.011c-.012-.022-.012-.045-.023-.067-.023-.045-.059-.1-.094-.168a2,2,0,0,1-.129-.225c-.012-.034-.035-.056-.047-.09-.234-.382-.527-.921-.878-1.549a43.031,43.031,0,0,1-3.092-6.456,3.149,3.149,0,0,1-.152-.8V222.856l-.316-2.178c-.023-.168-.035-.269-.035-.269l-2.19-15.336-.223-1.628-.3-2.144v-.011l-1.85-13.327a6.963,6.963,0,0,1-.082-1.1,8.028,8.028,0,0,1,.082-1.19c.07-.37.152-.741.258-1.111a7.861,7.861,0,0,1,1.686-3.02c.129-.146.258-.292.4-.427a9.85,9.85,0,0,1,.9-.786s0,.011.012,0a6.734,6.734,0,0,1,1.019-.651c.176-.1.363-.191.55-.281l2.541-1.168a3.752,3.752,0,0,1,.726-.258,4.006,4.006,0,0,1,.96-.112c.129,0,.246.011.375.022.047.011.094.011.129.022a.432.432,0,0,1,.117.022c.082.011.164.034.246.045a1.66,1.66,0,0,1,.281.079,1.024,1.024,0,0,1,.2.067,1.453,1.453,0,0,1,.234.1,1.506,1.506,0,0,1,.3.146c.094.045.187.112.281.168.117.1.222.18.34.269a3.3,3.3,0,0,1,.714.831c.094.157.176.314.258.483.047.135.105.292.152.438a1.585,1.585,0,0,0,.059.225,1.523,1.523,0,0,1,.047.225c.023.135.047.292.07.449.035.258.082.55.129.853.117.842.281,1.841.445,2.964.07.528.152,1.055.234,1.594.047.269.094.539.117.82.059.326.105.674.152,1,.012.146.047.314.07.46.562,3.84,1.1,7.477,1.382,9.184v.034c.094.494.141.831.176.954.012-.067.047-.146.07-.281.012-.034.023-.09.035-.135.023-.1.059-.2.094-.326.023-.079.047-.157.07-.247,0,0-.012,0,0-.011.082-.269.176-.6.281-.943.07-.18.117-.382.187-.573.059-.213.129-.427.187-.64.094-.269.164-.561.269-.853q.193-.589.386-1.213c.258-.808.515-1.662.785-2.5.164-.494.328-1.01.492-1.527a10.222,10.222,0,0,1,8.783-6.916l.129-.011a1.956,1.956,0,0,1,.351-.034c.094,0,.187.011.281.011a2.437,2.437,0,0,1,.281.045,1.887,1.887,0,0,1,.246.045,2.079,2.079,0,0,1,.246.079c.023,0,.035.011.047.011a2.33,2.33,0,0,1,.351.146,2.373,2.373,0,0,1,.328.18,2.748,2.748,0,0,1,.293.213,2.016,2.016,0,0,1,.281.258c.082.09.164.18.246.281a3.383,3.383,0,0,1,.48,1.01h.012c.023.056.035.124.059.18.012,0,0,.011,0,.011.012.067.012.135.023.2a.04.04,0,0,1,.012.034,3.252,3.252,0,0,1,.023.337,2.161,2.161,0,0,1-.012.269.588.588,0,0,1-.012.2c-.047.3-.094.606-.141.932-.445,2.919-1.031,6.792-1.593,10.576-.094.606-.176,1.2-.269,1.8-.094.651-.2,1.291-.293,1.931-.023.112-.035.236-.047.348-.035.281-.094.561-.117.842-.07.393-.129.775-.187,1.156s-.117.741-.164,1.1c-.023.18-.059.359-.082.528,0,.045-.012.09-.012.124-.035.225-.07.438-.105.651a3.466,3.466,0,0,0-.023.752v.022c.152.932,1.534-2.189,1.534-2.189a11.163,11.163,0,0,1,5.773-5.041c.222-.09.468-.18.714-.269l2.881-.539a2.676,2.676,0,0,1,2.682,2.6c0,.09-1.991,11.777-3.419,20.175-.187,1.145-.375,2.234-.539,3.211-.527,3.087-.89,5.2-.89,5.2l-.855,7.185L591.534,249l.105.2,1.288,2.492.9,1.706c.012.022.023.056.035.079l1.921,3.694c-.047,1.123-.094,2.245-.129,3.357-.012.258-.012.505-.023.752Q595.369,269.067,595.386,276.589Z" transform="translate(-29.646 -6.597)"/><path class="d" d="M601.155,316.7A81.816,81.816,0,0,1,574.1,325.78c-.047.012-.082.012-.129.022-1.206.18-2.412.337-3.642.449l-5.234-1.2-13.01-9.19-20.048-21.813a10.691,10.691,0,0,1-2.518-4.758l-.386-1.661-1.194.617-2.061,1.066c-1.546-.662-.7-5.173-.7-5.173l-.667-.269-1.183-.471a7.28,7.28,0,0,1,.281-4.286c.843-2.592-2.1-8.18-2.1-8.18L524,266.993l.176-.281-.141-.269-2.412-4.477,11.722,6.116,3.97,7.6.023.067.141.258a.04.04,0,0,0,.012.034l.761,1.437,7.963,5.531.023.011,3.736,2.615,1.487,1.032.258-.18L573.4,271.75l-.351-.527L566,260.686l-.586-.875-9.3-3.288-.82-.281-1.569-.224-1.37-.2-.105-.011-.48-.079s-19.5,4.286-19.814,4.286-7.143-.3-7.143-.3l2.166-2.166,2.377-2.368.785-.774,14.919-8.573a30.052,30.052,0,0,0,7.483-6.071l1.885-2.1.234.1,13.947,6.34.059-.987.023-.393.07-1.111,1.007-16.405-1.206-.774-.7-.449L566.8,202.337v-.011l-1.276-1.212-1.183-11.064a8.164,8.164,0,0,1,1.358-5.409l2.81-4.163.738,9.3,3.092,2.345.726-.763,1.476-1.537.047-.045.023.5.07,1.425.223,4.7,1.089,3.052v.034l.246.673.632,1.784.82,2.323,4.239,11.939L580.018,205.6l.094-1.021.105-1.021,2.494-10.537a8.532,8.532,0,0,1,3.935-5.341l3.993-2.446.129,1.986-2.19,19.738c0,.045-.012.09-.012.123l-.129,1.4v.022l-.668,7.709-.094,1.021.187,2.671,1.194,16.731,2.892-16.843-.211-1.279-.234-1.492,2.412-8.214a9.669,9.669,0,0,1,4.1-5.375l2.553-1.6.328,2.648-2.026,14.7-.07.673-.211,1.818-.527,4.78-2.412,21.735-.094.808.761,2.233.422,1.537.012.045,2.705,9.583.023.112-.117,6.273-.152,8.91-.129,7.653s1.546,25.909,1.593,26.74C600.792,313.762,600.956,315.31,601.155,316.7Z" transform="translate(-33.652 -7.683)"/><path class="e" d="M529.16,164.88a78.279,78.279,0,0,0,0,156.558c2.587,0,5.251-.131,7.918-.388l.15-.025c1.337-.137,2.679-.309,3.989-.512l.124-.023a77.142,77.142,0,0,0,26.994-9.6c.014-.007.026-.016.039-.024.844-.492,1.69-.982,2.52-1.509l.1-.062c.069-.042.138-.084.289-.188A78.257,78.257,0,0,0,529.16,164.88Zm11.787,153.4-.133.022c-1.249.193-2.527.357-3.8.487a1.576,1.576,0,0,0-.231.033c-.953.091-1.9.148-2.848.205L520.094,311.4l-25.51-26.886a8.534,8.534,0,0,0,3.619-2.695,1.126,1.126,0,0,0-1.846-1.288,6.123,6.123,0,0,1-3.478,2.15,10.267,10.267,0,0,1-.784-1.031l-.122-.165c-.054-.076-.106-.159-.159-.248v0l.022-.044-.257-.4c1.616-2.664,5.614-4.064,5.657-4.079a1.125,1.125,0,0,0-.726-2.13,15.692,15.692,0,0,0-5.928,3.8c-.057-.2-.117-.406-.164-.607-.073-.323-.135-.656-.181-.953-.021-.194-.041-.4-.052-.6l-.014-.125a3.924,3.924,0,0,1-.041-.653l-.079-5.291a8.164,8.164,0,0,0-.848-3.375l2.07-1.489a6.546,6.546,0,0,0,2.774-6.59,6.994,6.994,0,0,0-.211-.776,6.269,6.269,0,0,0-.326-.793l.111.012c.053.034.105.07.155.1l7.541,5.175a1.255,1.255,0,0,1,.138.121,4.244,4.244,0,0,1,.579.8c.032.047.064.095.1.151.115.2.222.4.3.549a3.919,3.919,0,0,0,.178.36c.385.791.763,1.708,1.119,2.581.135.33.264.661.392.986l.183.462c.187.452.366.888.539,1.287l.006.252.165.165.357.74c.041.082.08.16.106.205a5.018,5.018,0,0,0,.308.511l4.74,4.369a6.377,6.377,0,0,0,2.133,1.278,1.061,1.061,0,0,0,.209.2c.178.11,4.388,2.712,6.678,3.754a1.125,1.125,0,0,0,.932-2.049c-.933-.424-2.25-1.152-3.45-1.844a6.393,6.393,0,0,0,1.2-.529l15.156-8.911a4.32,4.32,0,0,0,.509-.349,1.118,1.118,0,0,0,.363-.2c1.2-1.009,5.112-1.5,7.3-1.579a1.125,1.125,0,0,0,1.086-1.163,1.11,1.11,0,0,0-1.162-1.087,28.731,28.731,0,0,0-5.941.843,4.083,4.083,0,0,0,0-.5l-.156-2.253a1.669,1.669,0,0,0-.033-.319,7,7,0,0,0-1.038-3.023l-2.039-3.016a7.7,7.7,0,0,0,.818.044,9.678,9.678,0,0,0,4.68-1.3,1.125,1.125,0,1,0-1.081-1.974c-3.686,2.023-6,.448-6.111.366a1.1,1.1,0,0,0-.445-.189l-8.073-3.737-.141-.065a15.514,15.514,0,0,0-.655-5.458,1.126,1.126,0,0,0-2.09.836,13.457,13.457,0,0,1,.5,4.531l-4.914,1.852-11.666,4.622-.147.061a9.819,9.819,0,0,1-1.357.476c-.232.064-.454.116-.668.165a10.365,10.365,0,0,1-4.211.01l-.31-.074a9.675,9.675,0,0,1-1.868-.627l-1.852-.825,5.262-2.753c1.4-.722,1.4-2.51,1.4-3.815a8.163,8.163,0,0,1,.045-1.124l.225-1.43,17.227-11.164a9.127,9.127,0,0,1,1.115-.622,2.518,2.518,0,0,1,.332-.151l.113-.044a7.649,7.649,0,0,1,1-.378,10.378,10.378,0,0,1,2.179-.419,4.135,4.135,0,0,1-.1,2.266,1.125,1.125,0,1,0,2.134.711,6.334,6.334,0,0,0,.252-2.948,3.7,3.7,0,0,1,.418.068c.173.025.338.059.591.11.131.028.263.066.473.124a2.682,2.682,0,0,1,.382.115c.146.046.291.09.464.158.213.078.416.165.662.281.2.087.4.183.647.315l7.093,3.458a1.117,1.117,0,0,0,.606.295l16.127,7.862a12.9,12.9,0,0,1,6.546,7.455l1.215,3.657a1.126,1.126,0,0,0,2.136-.71L560,251.555a15.168,15.168,0,0,0-7.7-8.766l-16.156-7.874a22.15,22.15,0,0,1-2.112-11.275c.053-.7.041-2.679.019-4.744l4.2-.078a1.126,1.126,0,0,0,1.1-1.146,1.171,1.171,0,0,0-1.146-1.1l-4.34.081c-.089-1.037-.182-1.942-.185-1.97l-2.437-17.908,2.912-.069a1.126,1.126,0,0,0,1.1-1.152,1.1,1.1,0,0,0-1.152-1.1l-3.169.075-1.65-12.37a7.16,7.16,0,0,1,4.014-7.422l2.1-1.007.891,9.086c.221,1.769,3.261,2.886,4.8,3.167l.419,2.421c.762,4.415,1.484,8.585,1.752,10.409l12.877,39.165,4.59,6.332,2.083,4.176a15.81,15.81,0,0,1,1.591,6.137h0l.019.475c0,.021,0,.042,0,.063l0,.172c0,.183,0,.365-.006.558-.057,2.11-.09,4.21-.114,6.309a387.1,387.1,0,0,0,2.3,47.1A75.005,75.005,0,0,1,540.947,318.276ZM491.7,258.622a4.534,4.534,0,0,1,.145.529,4.358,4.358,0,0,1-1.876,4.3l-1.9,1.366-.877-1.441a4.447,4.447,0,0,1,.979-5.685l.222-.194a4.82,4.82,0,0,1,1.031-.63l.394-.156a2.591,2.591,0,0,1,.342-.1c.053-.015.1-.024.156-.034l.434.461A4.185,4.185,0,0,1,491.7,258.622Zm-.535-7.757a2.408,2.408,0,0,1,.132-.315l.681-.833a3.17,3.17,0,0,1,.33-.213l4.8-3.113c-.017.3-.024.611-.024.937a5.079,5.079,0,0,1-.188,1.819l-5.792,3.03A2.365,2.365,0,0,1,491.162,250.865Zm7.517,7.018a12.314,12.314,0,0,0,2.715-.27c.264-.06.514-.12.774-.19a12.078,12.078,0,0,0,1.652-.578l11.746-4.655,5.142-1.941,8.019,3.714,3.694,5.466a4.69,4.69,0,0,1,.69,2.067l.18,2.461a2.1,2.1,0,0,1-1.048,1.941l-15.158,8.912a4.239,4.239,0,0,1-2.167.579h0l-.465-.016-.151-.032a4.181,4.181,0,0,1-2.255-1.056l-4.476-4.091c-.037-.06-.075-.129-.12-.212l-.345-.7-.016-.04-.1-.24c-.192-.436-.394-.927-.605-1.44l-.169-.426c-.132-.337-.266-.679-.405-1.018-.369-.905-.763-1.86-1.2-2.766-.038-.069-.079-.147-.146-.294-.131-.25-.25-.475-.38-.7-.059-.1-.116-.19-.146-.232a6.049,6.049,0,0,0-.889-1.184,3.5,3.5,0,0,0-.42-.358Zm38.965-84.43a2.592,2.592,0,0,1,.4.16,2.506,2.506,0,0,1,1.31,1.876c.234,1.651.742,4.68,1.326,8.085a5.743,5.743,0,0,1-2.157-1.125ZM563.6,221.169c0,.177-.009.363-.023.5l-2.721,19.006-2.633-3.578-2.316-7.033a1.035,1.035,0,0,0,.039-.221L555.5,212.6l3.578.471a1.125,1.125,0,0,0,.294-2.231l-3.7-.487,2.213-10.268a2.842,2.842,0,0,1,.5-1.083,8.319,8.319,0,0,1,4.946-3.451l1.824-.487a1.344,1.344,0,0,1,1.561,1.576l-2.923,16.248-.221,1.256Zm-9.567-21.641-.954,6.63.13,5a1.109,1.109,0,0,0,.011.435l.291,11.2-7.9-24,2.715.357a1.125,1.125,0,0,0,.295-2.231l-3.449-.454c-.187-1.142-.425-2.543-.689-4.084.075-.3.4-1.254.711-2.187.477-1.416,1.12-3.325,1.774-5.442a8.788,8.788,0,0,1,7.474-6.153l.128-.014a2,2,0,0,1,1.645.59,1.931,1.931,0,0,1,.522,1.623C556.044,185.59,554.863,193.776,554.036,199.528ZM570,307.254l-.168.109c-.066.041-.132.081-.146.093-.314.2-.638.377-.954.571a385.739,385.739,0,0,1-2.172-45.8c.024-2.087.056-4.174.113-6.261.006-.163.01-.322.01-.482l-.025-.928a18.008,18.008,0,0,0-1.808-7.034l-2.1-4.211,3.062-21.36c.026-.264.04-.529.04-.785l-.034-6.812,3.08-17.134.031-.191a3.6,3.6,0,0,0-.994-3.18,3.637,3.637,0,0,0-3.271-.976l-1.91.5a10.57,10.57,0,0,0-6.175,4.283c.791-5.5,1.775-12.326,2.386-16.539a4.161,4.161,0,0,0-1.129-3.507,4.214,4.214,0,0,0-3.5-1.266l-.127.014a11.039,11.039,0,0,0-9.389,7.728c-.4,1.3-.791,2.5-1.147,3.569-.87-5.033-1.757-10.164-2.085-12.483a4.785,4.785,0,0,0-6.81-3.64l-2.44,1.17a9.4,9.4,0,0,0-5.272,9.749l1.915,14.37h.01l2.466,18.12s.161,1.57.259,2.929l.076,1.064h.012c.016,1.556.036,3.886-.013,4.531a24.749,24.749,0,0,0,1.289,9.951l-4.552-2.219c-.256-.142-.527-.271-.755-.368-.269-.128-.538-.243-.785-.332-.189-.076-.391-.141-.545-.187a3.991,3.991,0,0,0-.568-.17c-.177-.05-.355-.1-.531-.138l-.115-.023c-.209-.042-.41-.082-.565-.1a4.709,4.709,0,0,0-.582-.089c-.168-.024-.335-.038-.5-.05a2.38,2.38,0,0,0-.444-.026,12.615,12.615,0,0,0-4.392.55,9.743,9.743,0,0,0-1.235.461,4.839,4.839,0,0,0-.547.243,11.073,11.073,0,0,0-1.359.76l-24.478,15.863a4.033,4.033,0,0,0-.724.517l-.917,1.1-.109.161a4.55,4.55,0,0,0-.346.779,4.611,4.611,0,0,0,.683,4.25c-.045.01-.083.02-.115.03a4.432,4.432,0,0,0-.505.15,1.586,1.586,0,0,0-.315.116c-.045.016-.078.03-.089.035l-.277.124a7.135,7.135,0,0,0-1.463.915l-.236.207a6.7,6.7,0,0,0-1.447,8.565l1.7,2.785a5.888,5.888,0,0,1,.84,2.869l.079,5.26a6.29,6.29,0,0,0,.061.942c.013.226.035.454.064.712.061.4.133.785.22,1.169.086.365.181.729.281,1.045a9.243,9.243,0,0,0,.358,1.033c.044.093.082.186.123.281l.1.223c.063.137.137.288.182.369l.026.063.391.746c.065.118.133.236.2.344.1.167.21.335.321.488l.046.06a12.539,12.539,0,0,0,1.4,1.751l26.94,28.392,10.993,6.1c-.137,0-.278.01-.415.01A76.1,76.1,0,1,1,570,307.254Z" transform="translate(-1.219 -1.218)"/></g></svg>