<svg xmlns="http://www.w3.org/2000/svg" width="242.386" height="27" viewBox="0 0 242.386 27"><defs><style>.a{fill:none;}.b{fill:#f05a28;}</style></defs><g transform="translate(-15 -66)"><g transform="translate(0 -374.453)"><rect class="a" width="241.773" height="27" transform="translate(15.614 440.453)"/><g transform="translate(15 440.6)"><g transform="translate(115.582 0)"><path class="b" d="M602.861,321.607h-1.34a2.476,2.476,0,0,0-2.369,3.2l.388,1.272a1.651,1.651,0,0,1-1.579,2.133h-5.406l9.115-8.051a2.477,2.477,0,0,0-1.639-4.333h-7.954a3.3,3.3,0,0,0-3.159,4.265l1.143,3.749a.825.825,0,0,1-.419.978.829.829,0,1,0-.4.8v.115H590.4a3.3,3.3,0,0,0,3.159-4.267l-.225-.738a2.2,2.2,0,0,1,2.1-2.838h.013a2.476,2.476,0,0,1,1.631,4.34l-7.434,6.505a.77.77,0,0,0,.012-.113.826.826,0,1,0-.826.826H600.2a2.477,2.477,0,0,0,2.369-3.2l-.713-2.34a.823.823,0,0,1,.372-.949.824.824,0,1,0,.628-1.356Z" transform="translate(-588 -310.875)"/><path class="b" d="M651.878,317.066h.114a.825.825,0,1,0,.711-1.238h-7.386a.856.856,0,0,0-.859.687.824.824,0,0,0,1.526.551h.114a.826.826,0,0,1,.826.826v9.494a.826.826,0,0,1-.826.826h-9.081a.826.826,0,0,1-.826-.826v-8.669a.826.826,0,0,1,.826-.826h1.96a.825.825,0,0,1,.79,1.066l-1.092,3.577a2.459,2.459,0,0,0,.224,1.962h-.758a.825.825,0,1,0-.711,1.238h6.148a.857.857,0,0,0,.859-.687.823.823,0,0,0-1.442-.669.822.822,0,0,1-.372-.949l1.342-4.4a2.477,2.477,0,0,0-2.369-3.2h-7.054a2.477,2.477,0,0,0-2.477,2.477v9.081a.823.823,0,0,1-.554.776.826.826,0,1,0-.684,1.288H652.7a.826.826,0,1,0-.711-1.238h-.114a.826.826,0,0,1-.826-.826v-9.494A.826.826,0,0,1,651.878,317.066Z" transform="translate(-612.663 -310.875)"/><path class="b" d="M729.738,317.066h.114a.824.824,0,1,0,.711-1.238h-7.43a.826.826,0,1,0,.711,1.238h.114a.826.826,0,0,1,.826.826v9.494a.826.826,0,0,1-.826.826h-3.315a6.8,6.8,0,0,0,2.9-5.573h0a6.811,6.811,0,0,0-6.811-6.811h-18.67a4.953,4.953,0,0,0-4.738,6.4l1.5,4.92a.823.823,0,0,1-.372.949.824.824,0,1,0-.628,1.356h7.637a3.922,3.922,0,0,0,0-7.843h-2.27a.826.826,0,1,0,.686,1.284,2.682,2.682,0,0,1-.48,5.321h-1.382a3.108,3.108,0,0,0,.5-2.8l-1.427-4.68a2.2,2.2,0,0,1,2.1-2.839h7.843v9.494a.823.823,0,0,1-.554.776.826.826,0,1,0-.684,1.288h6.6a.826.826,0,1,0-.684-1.288.823.823,0,0,1-.554-.776v-9.494h3.1a5.16,5.16,0,0,1,.574,10.288.637.637,0,0,0,.064,1.27h15.667a.826.826,0,1,0-.711-1.238h-.114a.826.826,0,0,1-.826-.826v-9.494A.826.826,0,0,1,729.738,317.066Z" transform="translate(-649.657 -310.875)"/><path class="b" d="M842.893,327.824a.823.823,0,0,0-.919.388h-.248a.826.826,0,0,1-.792-1.06l1.457-4.927a4.953,4.953,0,0,0-4.738-6.4h-9.784a.856.856,0,0,0-.859.687.824.824,0,0,0,1.526.551h.114a.826.826,0,0,1,.826.826v9.494a.826.826,0,0,1-.826.826h-.114a.825.825,0,1,0-.711,1.238h7.386a.857.857,0,0,0,.859-.687.824.824,0,0,0-1.526-.551h-.114a.826.826,0,0,1-.826-.826v-7.843a1.651,1.651,0,0,1,1.651-1.651h.826a2.2,2.2,0,0,1,2.1,2.839l-1.358,4.454a3.3,3.3,0,0,0,3.158,4.266h2.7a.826.826,0,0,0,.208-1.626Z" transform="translate(-728.343 -310.875)"/><path class="b" d="M872.016,321.4a.823.823,0,0,0-1.518-.234h-.114a.826.826,0,0,1-.826-.826V305.892a.826.826,0,0,1,.826-.826h.114a.825.825,0,1,0,.711-1.238H860.923a.826.826,0,0,0-.79,1.066l.1.344a.822.822,0,0,1-.708,1.057.825.825,0,1,0-.705,1.248h3.983a.825.825,0,0,0,.79-1.067l-.1-.344a.825.825,0,0,1,.79-1.066h.322a.826.826,0,0,1,.825.826V320.34a.826.826,0,0,1-.825.826h-.114a.825.825,0,1,0-.711,1.238h7.43A.827.827,0,0,0,872.016,321.4Z" transform="translate(-746.546 -303.828)"/><path class="b" d="M800.558,317.066h.114a.825.825,0,1,0,.711-1.238h-9.352a1.651,1.651,0,0,0-1.579,2.132l.786,2.58a.822.822,0,0,1-.707,1.057.825.825,0,1,0-.705,1.248h2.868a1.651,1.651,0,0,0,1.579-2.133l-.868-2.768a.676.676,0,0,1,.645-.878h.731a.826.826,0,0,1,.826.826v9.494a.826.826,0,0,1-.826.826h-4.128v.01a.824.824,0,1,0-.717,1.228h11.449a.826.826,0,1,0-.711-1.238h-.114a.826.826,0,0,1-.826-.826v-9.494A.826.826,0,0,1,800.558,317.066Z" transform="translate(-706.029 -310.875)"/></g><g transform="translate(0 0)"><path class="b" d="M347.835,327.824a.823.823,0,0,0-.918.388h-.044a.826.826,0,0,1-.79-1.066l1.824-5.987a4.128,4.128,0,0,0-3.949-5.331H313.347a4.953,4.953,0,0,0-4.738,6.4l1.5,4.92a.826.826,0,0,1-.585,1.04.825.825,0,1,0-.7,1.264h1.745a3.3,3.3,0,0,0,3.159-4.266l-1.358-4.454a2.2,2.2,0,0,1,2.1-2.839h.826a.826.826,0,0,1,.826.826v8.669a.825.825,0,0,1-.81.824.824.824,0,1,0-.71,1.24h9.439a3.182,3.182,0,0,0,3.224-3,3.1,3.1,0,0,0-3.094-3.191h.3a2.758,2.758,0,0,0,2.795-2.6,2.683,2.683,0,0,0-2.682-2.766h4.053a.826.826,0,0,1,.826.826v8.669a.823.823,0,0,1-.554.776.826.826,0,1,0-.684,1.288h6.56a.857.857,0,0,0,.859-.687.826.826,0,0,0-1.5-.6.823.823,0,0,1-.554-.776v-8.669a.826.826,0,0,1,.826-.826h7.3a2.2,2.2,0,0,1,2.1,2.839l-1.358,4.454a3.281,3.281,0,0,0,.587,3.027h-1.7a2.764,2.764,0,0,1-2.8-2.535,2.685,2.685,0,0,1,2.2-2.786.828.828,0,0,0,.912.337.826.826,0,0,0-.225-1.621H339.3a4.01,4.01,0,0,0-4.047,3.66,3.922,3.922,0,0,0,3.913,4.183h8.462a.826.826,0,0,0,.207-1.626Zm-23.868-1.676a2.064,2.064,0,0,1-2.064,2.064h-.826a.826.826,0,0,1-.826-.826v-8.669a.825.825,0,0,1,.826-.826h.154a2.73,2.73,0,0,1,2.736,2.736c-.028,1.813-1.516,2.23-2.476,2.631v.038a.618.618,0,0,0-.413.582c0,.011,0,.021,0,.033s0,.022,0,.033a.661.661,0,0,0,1.19.417.587.587,0,0,0,.156-.586,2.023,2.023,0,0,1,1.543,2.167Z" transform="translate(-308 -310.875)"/><path class="b" d="M437.593,315.828h-1.876a3.3,3.3,0,0,0-3.159,4.265l1.663,5.452a2.064,2.064,0,0,1-1.974,2.666h-1.671a.676.676,0,0,1-.646-.873l1.558-5.114a4.953,4.953,0,0,0-4.738-6.4h-9.683a4.953,4.953,0,0,0-4.738,6.4l1.558,5.114a.673.673,0,0,1-.382.815.825.825,0,1,0-.677,1.3h1.464a3.3,3.3,0,0,0,3.159-4.266l-1.358-4.454a2.2,2.2,0,0,1,2.1-2.839h1.651v10.32h-.527a.824.824,0,1,0-.711,1.238h6.6a.826.826,0,1,0-.711-1.238h-.527v-10.32h1.651a2.2,2.2,0,0,1,2.1,2.839l-1.358,4.454a3.3,3.3,0,0,0,3.159,4.266h3.416a4.954,4.954,0,0,0,4.738-6.4l-1.5-4.92a.822.822,0,0,1,.708-1.056.824.824,0,1,0,.706-1.248Z" transform="translate(-369.07 -310.875)"/><path class="b" d="M436.4,350.219h-1.056a1.858,1.858,0,0,0-1.777,2.4l.935,3.067a1.161,1.161,0,0,1-1.11,1.5h-.94a.38.38,0,0,1-.364-.491l.877-2.876a2.786,2.786,0,0,0-2.665-3.6h-5.447a2.786,2.786,0,0,0-2.665,3.6l.877,2.876a.379.379,0,0,1-.215.459.464.464,0,1,0-.381.729h.823a1.857,1.857,0,0,0,1.777-2.4l-.764-2.5a1.236,1.236,0,0,1,1.182-1.6h.929v5.805h-.3a.464.464,0,1,0-.4.7h3.715a.464.464,0,1,0-.4-.7h-.3V351.38h.929a1.236,1.236,0,0,1,1.183,1.6l-.764,2.5a1.857,1.857,0,0,0,1.777,2.4h1.922a2.786,2.786,0,0,0,2.665-3.6l-.843-2.768a.462.462,0,0,1,.4-.594.464.464,0,1,0,.4-.7Z" transform="translate(-374.942 -331.069)"/><path class="b" d="M507.863,308.782a6.265,6.265,0,0,0-.929.066c-.089.012-.177.029-.265.045l.244-.8a3.3,3.3,0,0,0-3.159-4.266h-1.877a.826.826,0,1,0,.706,1.248.822.822,0,0,1,.708,1.056l-.807,2.649H484.364a4.128,4.128,0,0,0-3.949,5.331l1.824,5.987a.822.822,0,0,1-.708,1.056.824.824,0,1,0-.706,1.248h3.228a2.3,2.3,0,0,0,2.2-2.973l-1.753-5.747a2.2,2.2,0,0,1,2.1-2.839h1.932a6.811,6.811,0,1,0,9.758,0h3.561l-.029.093a15.855,15.855,0,0,0-.76,4.043,7,7,0,0,0,6.506,7.416,6.811,6.811,0,1,0,.291-13.616Zm-14.448,12.384c-1.482,0-2.683-2.31-2.683-5.16s1.2-5.16,2.683-5.16,2.683,2.31,2.683,5.16S494.9,321.165,493.416,321.165Zm14.448,0c-1.086,0-2.018-1.234-2.44-3.013a9.258,9.258,0,0,1-.244-2.146,8.975,8.975,0,0,1,.376-2.634l.016-.05c.471-1.486,1.321-2.477,2.291-2.477,1.482,0,2.683,2.312,2.683,5.16S509.345,321.165,507.863,321.165Z" transform="translate(-409 -303.828)"/></g></g></g></g></svg>