<svg xmlns="http://www.w3.org/2000/svg" width="17.314" height="14.17" viewBox="0 0 17.314 14.17"><defs><style>.a{fill:#fff;}</style></defs><path class="a" d="M19.668-6.68a.923.923,0,0,0-.3-.684l-6.094-6.094a1.17,1.17,0,0,0-.337-.229.873.873,0,0,0-.347-.073.89.89,0,0,0-.649.254.853.853,0,0,0-.259.635.989.989,0,0,0,.068.361.836.836,0,0,0,.186.293l2.07,2.1,3.555,3.242.264-.537-3.1-.186H3.281a.905.905,0,0,0-.669.259.893.893,0,0,0-.259.659.905.905,0,0,0,.259.669.905.905,0,0,0,.669.259H14.727l3.1-.2-.264-.518L14-3.242l-2.07,2.109a.845.845,0,0,0-.186.288.977.977,0,0,0-.068.366.853.853,0,0,0,.259.635.89.89,0,0,0,.649.254.906.906,0,0,0,.654-.293l6.123-6.1A.933.933,0,0,0,19.668-6.68Z" transform="translate(-2.354 13.76)"/></svg>